<?xml version="1.0" standalone="no"?>
<!DOCTYPE svg PUBLIC "-//W3C//DTD SVG 20010904//EN"
 "http://www.w3.org/TR/2001/REC-SVG-20010904/DTD/svg10.dtd">
<svg version="1.0" xmlns="http://www.w3.org/2000/svg"
 width="1200.000000pt" height="360.000000pt" viewBox="0 0 1200.000000 360.000000"
 preserveAspectRatio="xMidYMid meet">

<g transform="translate(0.000000,360.000000) scale(0.100000,-0.100000)"
fill="#000000" stroke="none">
<path d="M3577 3519 c-123 -18 -263 -98 -345 -197 -95 -114 -146 -284 -125
-419 13 -86 56 -187 109 -259 43 -57 430 -454 444 -454 9 0 406 411 438 454
67 89 112 221 112 331 1 322 -314 593 -633 544z m208 -285 c174 -86 215 -305
84 -449 -143 -155 -379 -122 -473 68 -33 65 -36 170 -7 234 23 49 93 128 133
149 79 41 176 40 263 -2z"/>
<path d="M1749 3359 c-191 -28 -368 -154 -456 -325 -76 -147 -73 -104 -73
-1090 0 -758 2 -888 15 -939 81 -310 412 -457 678 -302 58 34 139 124 171 190
50 101 56 160 56 565 l0 373 25 24 c13 14 29 25 35 25 24 0 68 -31 115 -82 27
-29 259 -268 515 -532 302 -310 489 -495 534 -527 310 -220 737 -75 836 284
19 67 20 104 20 623 l0 551 -23 34 c-25 37 -71 55 -112 45 -15 -4 -101 -84
-213 -196 l-187 -190 -46 0 c-35 0 -54 6 -80 28 -19 15 -316 310 -659 656
-642 645 -701 699 -822 747 -63 25 -185 49 -236 48 -21 -1 -62 -5 -93 -10z"/>
<path d="M8731 2654 c-30 -8 -76 -26 -103 -41 -60 -33 -153 -130 -191 -201
-32 -60 -57 -163 -57 -242 l0 -55 -58 -1 c-71 0 -114 -22 -148 -74 -23 -35
-26 -47 -22 -104 6 -96 50 -137 161 -151 l57 -7 0 -437 0 -436 30 -51 c39 -69
96 -98 180 -92 71 5 123 40 151 102 17 38 19 73 20 436 0 217 4 415 7 440 l7
45 120 5 c94 4 127 9 152 24 92 56 97 206 9 269 -27 19 -47 23 -161 27 l-130
5 2 58 c2 65 23 108 66 141 25 18 42 21 137 21 100 0 110 2 134 24 57 53 72
140 36 211 -24 47 -63 76 -121 89 -63 15 -215 12 -278 -5z"/>
<path d="M7399 2471 c-74 -24 -129 -97 -129 -172 0 -24 -3 -74 -7 -111 -6 -68
-6 -68 -37 -68 -65 -1 -111 -18 -148 -58 -108 -116 -20 -282 150 -282 l32 0 0
-312 c0 -347 6 -396 62 -500 81 -153 220 -226 408 -216 54 3 106 13 142 27 66
26 155 101 174 148 33 78 4 175 -60 206 -52 24 -91 21 -163 -14 -47 -23 -70
-29 -93 -24 -36 8 -77 55 -85 98 -3 18 -4 158 -3 312 l3 280 122 2 c137 2 166
11 208 68 51 67 43 154 -20 215 l-36 34 -127 7 c-70 4 -133 8 -139 8 -10 1
-13 30 -13 111 0 130 -16 174 -79 215 -41 28 -119 40 -162 26z"/>
<path d="M6323 2130 c-159 -17 -297 -88 -365 -186 -56 -80 -72 -132 -72 -229
0 -85 2 -94 38 -163 22 -40 55 -87 75 -103 61 -51 190 -107 331 -144 183 -49
234 -73 249 -118 23 -69 -25 -114 -140 -131 -61 -9 -178 16 -237 50 -142 81
-147 84 -197 84 -158 0 -230 -176 -118 -285 48 -47 177 -110 278 -136 108 -28
330 -31 425 -6 202 55 321 169 350 338 25 142 -31 289 -141 368 -58 42 -168
86 -318 126 -193 51 -231 75 -231 143 0 21 9 38 31 56 40 34 62 39 163 35 78
-4 91 -8 175 -51 125 -66 182 -63 244 12 52 61 45 152 -18 214 -91 91 -325
148 -522 126z"/>
<path d="M4890 2107 c-258 -77 -435 -291 -469 -569 -19 -163 19 -349 100 -483
42 -70 147 -171 226 -218 246 -144 608 -117 792 58 42 40 62 68 71 99 24 86
-22 162 -112 187 -38 10 -45 8 -97 -20 -156 -87 -180 -95 -271 -95 -97 0 -153
19 -226 80 -41 33 -104 140 -104 175 0 12 72 14 410 16 403 1 410 2 440 23 50
35 64 74 64 170 0 164 -53 296 -167 416 -59 63 -86 83 -161 119 -119 56 -161
65 -303 64 -92 0 -135 -5 -193 -22z m315 -297 c61 -29 112 -85 135 -147 11
-30 20 -58 20 -63 0 -6 -107 -10 -280 -10 -154 0 -280 2 -280 5 0 2 11 28 24
58 52 119 139 177 265 177 54 0 86 -5 116 -20z"/>
<path d="M9410 2121 c-53 -17 -91 -43 -118 -83 l-27 -42 0 -360 c0 -391 3
-415 56 -535 83 -184 248 -298 457 -317 114 -10 287 42 359 109 33 29 39 15
24 -56 -45 -224 -209 -338 -417 -292 -39 9 -104 32 -145 52 -120 58 -211 46
-266 -36 -27 -40 -37 -89 -29 -136 31 -165 463 -274 754 -190 137 40 287 151
360 268 119 191 132 288 132 972 0 534 0 537 -53 593 -66 71 -192 72 -271 3
-49 -43 -51 -56 -56 -406 l-5 -330 -28 -57 c-82 -166 -313 -198 -427 -60 -55
66 -60 104 -60 432 0 338 -4 365 -70 424 -53 47 -113 64 -170 47z"/>
</g>
</svg>
