<?xml version="1.0" encoding="UTF-8"?>
<svg version="1.1" xmlns="http://www.w3.org/2000/svg" width="500" height="500">
<path d="M0 0 C1.10671916 -0.00453111 2.21343833 -0.00906223 3.35369444 -0.01373065 C7.03413881 -0.02631413 10.71443406 -0.02475817 14.39489746 -0.02310181 C17.04546652 -0.02909095 19.69602423 -0.03584167 22.34658813 -0.04345703 C28.7837606 -0.06000654 35.22089642 -0.06556388 41.65808839 -0.06668179 C46.897466 -0.0676354 52.13683163 -0.07176129 57.37620544 -0.07808304 C72.26678203 -0.09568107 87.15732989 -0.10492448 102.04791695 -0.10342209 C102.84916856 -0.10334218 103.65042018 -0.10326227 104.47595215 -0.10317993 C105.27819495 -0.10309817 106.08043775 -0.10301641 106.90699095 -0.10293217 C119.89122402 -0.10212029 132.87534081 -0.121237 145.85954028 -0.14945666 C159.2269052 -0.17827716 172.59421359 -0.19199185 185.96161032 -0.19026911 C193.45210276 -0.18960823 200.94247338 -0.1949666 208.43293762 -0.21662521 C214.81374039 -0.23495845 221.19436616 -0.23908613 227.57518405 -0.22560637 C230.82223289 -0.21913637 234.06887787 -0.22097123 237.31590652 -0.23631287 C251.87524337 -0.30059806 265.39700287 0.40584652 279.47888184 4.26742554 C280.14644532 4.44773355 280.81400881 4.62804156 281.50180149 4.81381345 C298.75657319 9.54525242 314.97755024 18.598936 328.47888184 30.26742554 C329.47919434 31.10660522 330.47950684 31.94578491 331.51013184 32.81039429 C355.45671257 53.4069153 370.02745992 83.2440436 374.47888184 114.26742554 C374.7397398 118.1109828 374.75807902 121.93712203 374.74630737 125.7885437 C374.75083849 126.89526287 374.7553696 128.00198203 374.76003802 129.14223814 C374.7726215 132.82268252 374.77106554 136.50297776 374.76940918 140.18344116 C374.77539832 142.83401022 374.78214905 145.48456793 374.7897644 148.13513184 C374.80631391 154.5723043 374.81187125 161.00944012 374.81298916 167.44663209 C374.81394278 172.6860097 374.81806866 177.92537533 374.82439041 183.16474915 C374.84198844 198.05532573 374.85123186 212.94587359 374.84972946 227.83646065 C374.84964955 228.63771227 374.84956964 229.43896388 374.8494873 230.26449585 C374.84940554 231.06673865 374.84932378 231.86898146 374.84923954 232.69553465 C374.84842766 245.67976772 374.86754437 258.66388451 374.89576404 271.64808398 C374.92458453 285.0154489 374.93829923 298.38275729 374.93657649 311.75015402 C374.93591561 319.24064646 374.94127398 326.73101708 374.96293259 334.22148132 C374.98126582 340.60228409 374.9853935 346.98290986 374.97191374 353.36372775 C374.96544375 356.61077659 374.9672786 359.85742157 374.98262024 363.10445023 C375.04690543 377.66378707 374.34046086 391.18554658 370.47888184 405.26742554 C370.29857383 405.93498902 370.11826581 406.60255251 369.93249393 407.29034519 C365.20105495 424.54511689 356.14737138 440.76609394 344.47888184 454.26742554 C343.2201123 455.76789429 343.2201123 455.76789429 341.93591309 457.29867554 C321.33939207 481.24525627 291.50226377 495.81600362 260.47888184 500.26742554 C256.63532457 500.52828351 252.80918534 500.54662272 248.95776367 500.53485107 C247.29768492 500.54164774 247.29768492 500.54164774 245.60406923 500.54858172 C241.92362486 500.5611652 238.24332961 500.55960924 234.56286621 500.55795288 C231.91229715 500.56394202 229.26173945 500.57069275 226.61117554 500.57830811 C220.17400307 500.59485761 213.73686726 500.60041495 207.29967529 500.60153286 C202.06029767 500.60248648 196.82093205 500.60661236 191.58155823 500.61293411 C176.69098164 500.63053215 161.80043378 500.63977556 146.90984672 500.63827316 C146.10859511 500.63819325 145.30734349 500.63811334 144.48181152 500.63803101 C143.67956872 500.63794924 142.87732592 500.63786748 142.05077273 500.63778324 C129.06653965 500.63697136 116.08242286 500.65608807 103.09822339 500.68430774 C89.73085847 500.71312823 76.36355009 500.72684293 62.99615335 500.72512019 C55.50566091 500.72445931 48.0152903 500.72981768 40.52482605 500.75147629 C34.14402328 500.76980952 27.76339751 500.7739372 21.38257962 500.76045744 C18.13553078 500.75398745 14.8888858 500.7558223 11.64185715 500.77116394 C-2.91747969 500.83544913 -16.4392392 500.12900456 -30.52111816 496.26742554 C-31.18868165 496.08711753 -31.85624514 495.90680952 -32.54403782 495.72103763 C-49.79880951 490.98959865 -66.01978656 481.93591508 -79.52111816 470.26742554 C-81.02158691 469.00865601 -81.02158691 469.00865601 -82.55236816 467.72445679 C-106.4989489 447.12793577 -121.06969625 417.29080747 -125.52111816 386.26742554 C-125.78197613 382.42386827 -125.80031535 378.59772904 -125.7885437 374.74630737 C-125.79307481 373.63958821 -125.79760593 372.53286904 -125.80227435 371.39261293 C-125.81485783 367.71216856 -125.81330187 364.03187332 -125.81164551 360.35140991 C-125.81763465 357.70084086 -125.82438537 355.05028315 -125.83200073 352.39971924 C-125.84855024 345.96254677 -125.85410758 339.52541096 -125.85522549 333.08821899 C-125.8561791 327.84884138 -125.86030499 322.60947575 -125.86662674 317.37010193 C-125.88422477 302.47952534 -125.89346818 287.58897748 -125.89196579 272.69839042 C-125.89188588 271.89713881 -125.89180597 271.09588719 -125.89172363 270.27035522 C-125.89164187 269.46811242 -125.89156011 268.66586962 -125.89147587 267.83931643 C-125.89066399 254.85508335 -125.9097807 241.87096656 -125.93800037 228.88676709 C-125.96682086 215.51940217 -125.98053555 202.15209379 -125.97881281 188.78469706 C-125.97815193 181.29420462 -125.9835103 173.803834 -126.00516891 166.31336975 C-126.02350215 159.93256698 -126.02762983 153.55194121 -126.01415007 147.17112333 C-126.00768007 143.92407448 -126.00951493 140.6774295 -126.02485657 137.43040085 C-126.08914176 122.87106401 -125.38269718 109.3493045 -121.52111816 95.26742554 C-121.25065615 94.26608031 -121.25065615 94.26608031 -120.97473025 93.24450588 C-116.24329128 75.98973419 -107.18960771 59.76875714 -95.52111816 46.26742554 C-94.68193848 45.26711304 -93.84275879 44.26680054 -92.97814941 43.23617554 C-70.32243809 16.89547363 -34.81412016 -0.10640734 0 0 Z " fill="#FEFEFE" transform="translate(125.5211181640625,-0.267425537109375)"/>
<path d="M0 0 C9.00031446 5.88646159 16.86710588 14.07189909 24.35885525 21.72303772 C26.0586201 23.39137315 27.81778319 24.92967324 29.63331604 26.47045898 C34.92459034 31.07747658 39.83610347 36.0515312 44.77709961 41.02734375 C45.82746935 42.08127726 46.87807947 43.13497126 47.9289093 44.18844604 C50.17719533 46.44324195 52.42395996 48.69953879 54.66956902 50.95700073 C58.22737654 54.53323268 61.78964294 58.10500105 65.35267639 61.67602539 C75.47906568 71.82646752 85.59949872 81.98283598 95.71557617 92.14355469 C101.31355093 97.76615399 106.9151748 103.38509258 112.52066332 109.00020123 C116.05647804 112.54252035 119.58775841 116.08927728 123.11564052 119.63949585 C125.31876626 121.8544307 127.52613875 124.06509601 129.73467827 126.2746315 C130.75020522 127.29228842 131.76403202 128.31164553 132.7759285 129.33291245 C142.48817086 140.26486764 142.48817086 140.26486764 155.16015625 146.3046875 C164.86406901 145.2629647 174.7049202 130.89360705 181.28515625 124.2421875 C183.77570395 121.72492469 186.2696338 119.21108285 188.765625 116.69921875 C189.32718796 116.12935745 189.88875092 115.55949615 190.46733093 114.97236633 C198.62619975 106.76306436 198.62619975 106.76306436 202.59765625 105.86328125 C207.10178245 105.87031895 209.40093061 105.93202633 213.16015625 108.6171875 C215.95107032 112.66851438 216.2193055 116.387239 216.24482727 121.21994019 C216.25556023 122.62393318 216.25556023 122.62393318 216.26651001 124.05628967 C216.26919891 125.07138107 216.27188782 126.08647247 216.2746582 127.13232422 C216.2812294 128.21111343 216.2878006 129.28990265 216.29457092 130.40138245 C216.3142741 133.97071407 216.32596314 137.54000356 216.3359375 141.109375 C216.34001303 142.33274693 216.34408855 143.55611885 216.34828758 144.81656265 C216.36914074 151.29827962 216.38344287 157.7799755 216.39282227 164.26171875 C216.40284724 170.92686455 216.43821912 177.59162665 216.47799397 184.25666618 C216.50426299 189.40600159 216.51252348 194.55525819 216.51610374 199.70465469 C216.52094714 202.15960069 216.53249618 204.61454371 216.55114174 207.06942368 C216.70036265 228.02715361 215.48603855 245.79245513 200.28515625 261.8046875 C187.16785156 274.18774064 172.73305538 277.96390243 155.19921875 277.70703125 C139.1779329 277.11310309 127.9507783 268.7298438 116.80273438 258.05371094 C114.94118452 256.280654 113.06070088 254.52943495 111.17578125 252.78125 C97.13762348 239.75563061 97.13762348 239.75563061 91.44921875 233.28125 C83.8313072 224.76748467 75.58066429 216.84677678 67.47265625 208.8046875 C64.16499736 205.52380611 60.8607951 202.23949835 57.55859375 198.953125 C56.44114273 197.84812149 56.44114273 197.84812149 55.30111694 196.72079468 C51.30748946 192.74571616 47.51075015 188.67513321 43.83267212 184.40737915 C38.75657601 178.62129208 33.25905248 173.20419858 27.85498047 167.72705078 C26.34292094 166.18817124 24.83807396 164.64217335 23.34033203 163.08935547 C21.16149259 160.83163111 18.96071275 158.59754166 16.75390625 156.3671875 C16.09015991 155.67044922 15.42641357 154.97371094 14.74255371 154.25585938 C11.52932346 151.0562316 9.96034254 149.55893228 5.36914062 148.87109375 C2.4386156 149.37146996 0.66377185 150.05041563 -1.90234375 151.4296875 C-1.88902008 152.47379288 -1.87569641 153.51789825 -1.86196899 154.59364319 C-1.73968624 164.49279415 -1.65008535 174.39178944 -1.59147072 184.29152775 C-1.56032169 189.37965234 -1.51815376 194.46716126 -1.44970703 199.55493164 C-1.38392251 204.47630696 -1.34851461 209.39709478 -1.33308029 214.31887627 C-1.32209891 216.18497387 -1.30065841 218.05104381 -1.26796341 219.91688728 C-0.99631951 236.08011031 -3.56890959 249.08883697 -14.90234375 261.4296875 C-15.39992188 262.04070312 -15.8975 262.65171875 -16.41015625 263.28125 C-23.58461106 271.46517584 -35.74974738 276.67300971 -46.41015625 277.80078125 C-61.67072859 278.08094295 -72.68442213 272.76196567 -83.89453125 262.62890625 C-89.44351994 256.8702891 -92.63822827 249.63830136 -95.90234375 242.4296875 C-96.25736277 241.69910913 -96.61238178 240.96853075 -96.97815895 240.21581364 C-98.16160421 236.64809884 -98.1855719 233.29759075 -98.16976929 229.58213806 C-98.1743004 228.79820712 -98.17883151 228.01427618 -98.18349993 227.20658976 C-98.19614774 224.58289749 -98.19452329 221.95941272 -98.19287109 219.33569336 C-98.19885632 217.4529697 -98.20566185 215.57024849 -98.21322632 213.68753052 C-98.23089941 208.57353449 -98.2355824 203.45960539 -98.23685789 198.34558177 C-98.23827992 195.14752619 -98.24255062 191.94948759 -98.24785233 188.75143623 C-98.26636069 177.58533779 -98.2745224 166.4192871 -98.27294922 155.25317383 C-98.27174933 144.86098017 -98.29281971 134.46899471 -98.32443655 124.07685369 C-98.35064014 115.14414527 -98.36131472 106.21150464 -98.3600384 97.27875811 C-98.35952974 91.94857599 -98.36515926 86.61857867 -98.3863945 81.28843498 C-98.4058443 76.26917158 -98.40585536 71.25026789 -98.39136124 66.23099136 C-98.38928001 64.39609435 -98.39393277 62.56117443 -98.40608215 60.72631645 C-98.46893367 50.57031356 -98.05579163 41.90145514 -93.90234375 32.4296875 C-93.51407598 31.52855193 -93.12580822 30.62741636 -92.72577477 29.69897366 C-86.77967604 16.43620999 -76.06784433 5.91323878 -63.40234375 -0.9453125 C-62.80993896 -1.26709473 -62.21753418 -1.58887695 -61.60717773 -1.92041016 C-42.44664819 -11.75685956 -18.69099733 -10.11276033 0 0 Z " fill="#000000" transform="translate(182.90234375,106.5703125)"/>
<path d="M0 0 C12.00442978 9.65737534 20.99513613 22.21686348 23.32470703 37.76318359 C24.29710972 53.78912791 21.09507609 69.72021328 10.89335632 82.56542969 C9.31447691 84.33448225 7.6943184 86.04941295 6.04345703 87.75146484 C5.43801559 88.38746613 4.83257416 89.02346741 4.20878601 89.67874146 C2.25864749 91.71807579 0.29444099 93.74277796 -1.67529297 95.76318359 C-2.33282562 96.43834015 -2.99035828 97.1134967 -3.66781616 97.80911255 C-7.68982594 101.92687133 -11.74088472 106.01456701 -15.8112793 110.08447266 C-17.90489172 112.18032744 -19.99029598 114.28414834 -22.07568359 116.38818359 C-23.41438976 117.72981508 -24.75356393 119.07097979 -26.09326172 120.41162109 C-26.71194626 121.03749115 -27.3306308 121.66336121 -27.96806335 122.30819702 C-28.54329239 122.88034943 -29.11852142 123.45250183 -29.71118164 124.04199219 C-30.21300461 124.54524017 -30.71482758 125.04848816 -31.2318573 125.56698608 C-32.67529297 126.76318359 -32.67529297 126.76318359 -35.67529297 127.76318359 C-40.97116785 123.15992817 -45.98183541 118.56232885 -50.49951172 113.19287109 C-53.58785871 109.74412454 -56.88510573 106.51835614 -60.17529297 103.26318359 C-64.62998201 98.84732007 -69.03358974 94.45386297 -73.06591797 89.64208984 C-74.30474399 88.19579053 -75.59679571 86.79496131 -76.90966797 85.41552734 C-82.10850403 79.91937223 -85.8721693 74.80190956 -88.67529297 67.76318359 C-89.06716797 66.81056641 -89.45904297 65.85794922 -89.86279297 64.87646484 C-94.60043092 51.76570983 -94.49754666 37.48453414 -88.67529297 24.76318359 C-88.07394531 23.4 -88.07394531 23.4 -87.46044922 22.00927734 C-81.55231827 9.97039023 -72.3492453 1.12593319 -60.67529297 -5.23681641 C-59.60988281 -5.84976563 -59.60988281 -5.84976563 -58.52294922 -6.47509766 C-40.44531386 -16.31935453 -16.04913765 -11.84857641 0 0 Z " fill="#020202" transform="translate(374.67529296875,93.23681640625)"/>
<path d="M0 0 C5.29305283 3.0306996 9.0580604 6.48569803 12.5 11.5 C12.93183594 12.08136719 13.36367188 12.66273437 13.80859375 13.26171875 C17.81911158 19.65911916 17.46200317 27.24797612 16.5 34.5 C13.60529519 43.67008675 8.50349663 50.0503064 0.22265625 54.80859375 C-7.49231552 58.42225151 -16.48616556 58.98147945 -24.6875 56.5625 C-33.00190012 52.82013731 -39.23956123 45.86373424 -42.5 37.5 C-44.87018243 29.83749241 -44.62941477 20.75140431 -40.8828125 13.625 C-31.39533713 -0.95462317 -16.79159488 -7.68036608 0 0 Z " fill="#FDFDFD" transform="translate(353.5,111.5)"/>
</svg>
